<?xml version="1.0" encoding="utf-8"?>
<!-- Generator: Adobe Illustrator 17.0.0, SVG Export Plug-In . SVG Version: 6.00 Build 0)  -->
<!DOCTYPE svg PUBLIC "-//W3C//DTD SVG 1.1//EN" "http://www.w3.org/Graphics/SVG/1.1/DTD/svg11.dtd">
<svg version="1.1" id="Capa_1" xmlns="http://www.w3.org/2000/svg" xmlns:xlink="http://www.w3.org/1999/xlink" x="0px" y="0px"
	 width="800px" height="600px" viewBox="0 0 800 600" enable-background="new 0 0 800 600" xml:space="preserve">
<linearGradient id="SVGID_1_" gradientUnits="userSpaceOnUse" x1="400" y1="-1.795888e-008" x2="400" y2="600">
	<stop  offset="0" style="stop-color:#17988D"/>
	<stop  offset="1" style="stop-color:#0063AA"/>
</linearGradient>
<rect fill="url(#SVGID_1_)" width="800" height="600"/>
<g>
	<defs>
		<filter id="Adobe_OpacityMaskFilter" filterUnits="userSpaceOnUse" x="163.755" y="76.474" width="479.021" height="302.354">
			
				<feColorMatrix  type="matrix" values="-1 0 0 0 1  0 -1 0 0 1  0 0 -1 0 1  0 0 0 1 0" color-interpolation-filters="sRGB" result="source"/>
			<feFlood  style="flood-color:white;flood-opacity:1" result="back"/>
			<feBlend  in="source" in2="back" mode="normal"/>
		</filter>
	</defs>
	<mask maskUnits="userSpaceOnUse" x="163.755" y="76.474" width="479.021" height="302.354" id="SVGID_2_">
		<g filter="url(#Adobe_OpacityMaskFilter)">
			<circle fill="#FFFFFF" cx="402.778" cy="308.667" r="85.333"/>
		</g>
	</mask>
	<g mask="url(#SVGID_2_)">
		<g>
			<defs>
				
					<filter id="Adobe_OpacityMaskFilter_1_" filterUnits="userSpaceOnUse" x="340.422" y="76.474" width="124.712" height="231.996">
					
						<feColorMatrix  type="matrix" values="-1 0 0 0 1  0 -1 0 0 1  0 0 -1 0 1  0 0 0 1 0" color-interpolation-filters="sRGB" result="source"/>
					<feFlood  style="flood-color:white;flood-opacity:1" result="back"/>
					<feBlend  in="source" in2="back" mode="normal"/>
				</filter>
			</defs>
			<mask maskUnits="userSpaceOnUse" x="340.422" y="76.474" width="124.712" height="231.996" id="SVGID_2_">
				<g filter="url(#Adobe_OpacityMaskFilter_1_)">
					<path fill="#FFFFFF" d="M437.539,162.568c0,19.198-34.761,94.568-34.761,94.568s-34.761-75.37-34.761-94.568
						s15.563-34.761,34.761-34.761S437.539,143.37,437.539,162.568z"/>
				</g>
			</mask>
			<path fill="#FFFFFF" d="M465.134,138.83c0,34.438-62.356,169.64-62.356,169.64s-62.356-135.202-62.356-169.64
				s27.918-62.356,62.356-62.356S465.134,104.391,465.134,138.83z"/>
			<path fill="#00A99D" d="M420.646,174.1c0,9.87-17.87,48.61-17.87,48.61s-17.87-38.74-17.87-48.61s8-17.87,17.87-17.87
				S420.646,164.23,420.646,174.1z"/>
		</g>
		<g>
			<defs>
				<filter id="Adobe_OpacityMaskFilter_2_" filterUnits="userSpaceOnUse" x="410.755" y="126.185" width="182.31" height="182.31">
					
						<feColorMatrix  type="matrix" values="-1 0 0 0 1  0 -1 0 0 1  0 0 -1 0 1  0 0 0 1 0" color-interpolation-filters="sRGB" result="source"/>
					<feFlood  style="flood-color:white;flood-opacity:1" result="back"/>
					<feBlend  in="source" in2="back" mode="normal"/>
				</filter>
			</defs>
			<mask maskUnits="userSpaceOnUse" x="410.755" y="126.185" width="182.31" height="182.31" id="SVGID_3_">
				<g filter="url(#Adobe_OpacityMaskFilter_2_)">
					<path fill="#FFFFFF" d="M538.503,229.907c-13.575,13.575-91.45,42.29-91.45,42.29s28.715-77.875,42.29-91.45
						c13.575-13.575,35.585-13.575,49.16,0C552.078,194.322,552.078,216.332,538.503,229.907z"/>
				</g>
			</mask>
			<path mask="url(#SVGID_3_)" fill="#FFFFFF" d="M574.801,232.633c-24.352,24.352-164.046,75.862-164.046,75.862
				s51.51-139.695,75.862-164.046c24.352-24.352,63.833-24.352,88.185,0C599.152,168.8,599.152,208.282,574.801,232.633z"/>
			<path fill="#00A99D" d="M518.406,226.12c-6.98,6.97-47.01,21.74-47.01,21.74s14.76-40.04,21.74-47.01
				c6.98-6.98,18.29-6.98,25.27,0C525.386,207.82,525.386,219.14,518.406,226.12z"/>
		</g>
		<g>
			<defs>
				
					<filter id="Adobe_OpacityMaskFilter_3_" filterUnits="userSpaceOnUse" x="410.78" y="254.116" width="231.996" height="124.712">
					
						<feColorMatrix  type="matrix" values="-1 0 0 0 1  0 -1 0 0 1  0 0 -1 0 1  0 0 0 1 0" color-interpolation-filters="sRGB" result="source"/>
					<feFlood  style="flood-color:white;flood-opacity:1" result="back"/>
					<feBlend  in="source" in2="back" mode="normal"/>
				</filter>
			</defs>
			<mask maskUnits="userSpaceOnUse" x="410.78" y="254.116" width="231.996" height="124.712" id="SVGID_4_">
				<g filter="url(#Adobe_OpacityMaskFilter_3_)">
					<path fill="#FFFFFF" d="M556.681,351.233c-19.198,0-94.568-34.761-94.568-34.761s75.37-34.761,94.568-34.761
						s34.761,15.563,34.761,34.761C591.443,335.67,575.879,351.233,556.681,351.233z"/>
				</g>
			</mask>
			<path mask="url(#SVGID_4_)" fill="#FFFFFF" d="M580.42,378.828c-34.438,0-169.64-62.356-169.64-62.356
				s135.202-62.356,169.64-62.356c34.438,0,62.356,27.918,62.356,62.356S614.858,378.828,580.42,378.828z"/>
		</g>
		<g>
			<defs>
				<filter id="Adobe_OpacityMaskFilter_4_" filterUnits="userSpaceOnUse" x="213.466" y="126.185" width="182.31" height="182.31">
					
						<feColorMatrix  type="matrix" values="-1 0 0 0 1  0 -1 0 0 1  0 0 -1 0 1  0 0 0 1 0" color-interpolation-filters="sRGB" result="source"/>
					<feFlood  style="flood-color:white;flood-opacity:1" result="back"/>
					<feBlend  in="source" in2="back" mode="normal"/>
				</filter>
			</defs>
			<mask maskUnits="userSpaceOnUse" x="213.466" y="126.185" width="182.31" height="182.31" id="SVGID_5_">
				<g filter="url(#Adobe_OpacityMaskFilter_4_)">
					<path fill="#FFFFFF" d="M268.028,229.907c13.575,13.575,91.45,42.29,91.45,42.29s-28.715-77.875-42.29-91.45
						c-13.575-13.575-35.585-13.575-49.16,0C254.453,194.322,254.453,216.332,268.028,229.907z"/>
				</g>
			</mask>
			<path mask="url(#SVGID_5_)" fill="#FFFFFF" d="M231.73,232.633c24.352,24.352,164.046,75.862,164.046,75.862
				s-51.51-139.695-75.862-164.046c-24.352-24.352-63.833-24.352-88.185,0S207.378,208.282,231.73,232.633z"/>
			<path fill="#00A99D" d="M335.136,247.86c0,0-40.03-14.77-47.01-21.74c-6.98-6.98-6.98-18.3,0-25.27c6.98-6.98,18.29-6.98,25.27,0
				C320.376,207.82,335.136,247.86,335.136,247.86z"/>
		</g>
		<g>
			<defs>
				
					<filter id="Adobe_OpacityMaskFilter_5_" filterUnits="userSpaceOnUse" x="163.755" y="254.116" width="231.996" height="124.712">
					
						<feColorMatrix  type="matrix" values="-1 0 0 0 1  0 -1 0 0 1  0 0 -1 0 1  0 0 0 1 0" color-interpolation-filters="sRGB" result="source"/>
					<feFlood  style="flood-color:white;flood-opacity:1" result="back"/>
					<feBlend  in="source" in2="back" mode="normal"/>
				</filter>
			</defs>
			<mask maskUnits="userSpaceOnUse" x="163.755" y="254.116" width="231.996" height="124.712" id="SVGID_6_">
				<g filter="url(#Adobe_OpacityMaskFilter_5_)">
					<path fill="#FFFFFF" d="M249.849,351.233c19.198,0,94.569-34.761,94.569-34.761s-75.37-34.761-94.569-34.761
						c-19.198,0-34.761,15.563-34.761,34.761C215.088,335.67,230.651,351.233,249.849,351.233z"/>
				</g>
			</mask>
			<path mask="url(#SVGID_6_)" fill="#FFFFFF" d="M226.111,378.828c34.438,0,169.64-62.356,169.64-62.356
				s-135.202-62.356-169.64-62.356s-62.356,27.918-62.356,62.356S191.672,378.828,226.111,378.828z"/>
			<path fill="#00A99D" d="M309.996,316.47c0,0-38.75,17.87-48.62,17.87c-9.86,0-17.86-8-17.86-17.87s8-17.87,17.86-17.87
				C271.246,298.6,309.996,316.47,309.996,316.47z"/>
		</g>
	</g>
	<path fill="#00A99D" d="M563.016,316.47c0,9.87-8,17.87-17.87,17.87s-48.61-17.87-48.61-17.87s38.74-17.87,48.61-17.87
		S563.016,306.6,563.016,316.47z"/>
	<circle fill="#FFFFFF" cx="402.778" cy="307.667" r="78.058"/>
	<path fill="#00A99D" d="M396.478,364.401c-5.228-11.188-10.265-21.556-14.939-32.085c-5.117-11.525-6.562-22.785,3.288-32.992
		c3.882-4.022,7.519-4.968,9.793,0.819c3.487,8.876,6.538,17.963,9.07,27.154c1.017,3.692,0.167,7.898,1.139,11.951
		c6.566-7.934,6.994-17.318,3.855-26.022c-3.242-8.988-8.931-17.076-13.337-25.667c-2.92-5.694-6.22-11.363-7.968-17.441
		c-1.749-6.08,0.496-11.815,6.081-15.516c5.318-3.525,10.669-2.944,15.914,0.408c1.331,0.851,6.182,0.267,6.976,0.666
		c-3.254,3.904-12.455,8.964-12.347,12.669c0.182,6.187,3.502,12.642,6.717,18.292c4.495,7.899,11.548,14.567,14.963,22.814
		C434.819,331.518,415.33,359.421,396.478,364.401z"/>
</g>
<g>
	<g>
		<path fill="#FFFFFF" d="M255.501,420.148v3.918h-13.536v-20.261h4.561v16.343H255.501z"/>
		<path fill="#FFFFFF" d="M262.897,404.243c0,0.799-0.259,1.428-0.775,1.886c-0.517,0.458-1.126,0.687-1.827,0.687
			s-1.311-0.229-1.827-0.687c-0.517-0.458-0.775-1.086-0.775-1.886c0-0.799,0.258-1.428,0.775-1.886
			c0.516-0.458,1.126-0.687,1.827-0.687s1.311,0.229,1.827,0.687C262.639,402.816,262.897,403.445,262.897,404.243z
			 M262.488,424.065h-4.356v-15.378h4.356V424.065z"/>
		<path fill="#FFFFFF" d="M280.877,416.376c0,1.228-0.181,2.339-0.541,3.333c-0.361,0.994-0.882,1.842-1.564,2.544
			c-0.683,0.702-1.52,1.243-2.514,1.623c-0.994,0.38-2.125,0.57-3.391,0.57c-0.526,0-1.077-0.025-1.652-0.073
			c-0.575-0.049-1.14-0.112-1.696-0.19c-0.556-0.078-1.087-0.171-1.594-0.278c-0.507-0.107-0.955-0.219-1.345-0.336V402.08
			l4.356-0.702v7.66c0.487-0.214,0.994-0.38,1.52-0.497c0.526-0.117,1.091-0.175,1.696-0.175c1.091,0,2.056,0.19,2.895,0.57
			c0.838,0.38,1.539,0.921,2.105,1.623c0.565,0.702,0.994,1.545,1.286,2.529C280.731,414.071,280.877,415.168,280.877,416.376z
			 M276.433,416.259c0-2.807-1.033-4.21-3.099-4.21c-0.449,0-0.892,0.059-1.33,0.175c-0.438,0.117-0.794,0.263-1.067,0.439v7.923
			c0.214,0.039,0.487,0.073,0.819,0.102c0.331,0.029,0.692,0.044,1.082,0.044c1.189,0,2.085-0.409,2.69-1.228
			C276.131,418.686,276.433,417.604,276.433,416.259z"/>
		<path fill="#FFFFFF" d="M293.507,412.547c-0.39-0.097-0.848-0.2-1.374-0.307c-0.526-0.107-1.092-0.161-1.696-0.161
			c-0.273,0-0.599,0.025-0.979,0.073c-0.38,0.049-0.668,0.102-0.862,0.161v11.753h-4.356v-14.559c0.779-0.273,1.7-0.531,2.763-0.775
			c1.062-0.243,2.246-0.365,3.552-0.365c0.234,0,0.516,0.015,0.848,0.044c0.331,0.029,0.662,0.069,0.994,0.117
			c0.331,0.049,0.662,0.107,0.994,0.175c0.331,0.069,0.614,0.151,0.848,0.248L293.507,412.547z"/>
		<path fill="#FFFFFF" d="M295.553,416.493c0-1.364,0.209-2.558,0.628-3.581c0.419-1.024,0.969-1.876,1.652-2.558
			c0.682-0.682,1.466-1.199,2.353-1.55c0.887-0.351,1.798-0.526,2.734-0.526c2.183,0,3.908,0.668,5.175,2.003
			c1.267,1.335,1.9,3.299,1.9,5.891c0,0.253-0.01,0.531-0.029,0.833c-0.02,0.303-0.039,0.57-0.059,0.804h-9.882
			c0.097,0.897,0.516,1.608,1.257,2.134c0.741,0.526,1.735,0.789,2.982,0.789c0.799,0,1.583-0.073,2.353-0.219
			c0.77-0.146,1.398-0.326,1.886-0.541l0.585,3.538c-0.234,0.117-0.546,0.234-0.936,0.351c-0.39,0.117-0.824,0.219-1.301,0.307
			c-0.478,0.087-0.989,0.161-1.535,0.219c-0.546,0.059-1.092,0.088-1.637,0.088c-1.384,0-2.587-0.205-3.611-0.614
			c-1.023-0.409-1.871-0.97-2.544-1.681c-0.672-0.711-1.17-1.554-1.491-2.529C295.714,418.676,295.553,417.624,295.553,416.493z
			 M305.786,414.827c-0.02-0.37-0.083-0.731-0.19-1.082c-0.107-0.351-0.273-0.662-0.497-0.935c-0.224-0.273-0.507-0.497-0.848-0.672
			c-0.341-0.176-0.765-0.263-1.272-0.263c-0.487,0-0.906,0.083-1.257,0.249c-0.351,0.166-0.643,0.385-0.877,0.658
			c-0.234,0.273-0.414,0.59-0.541,0.95c-0.127,0.361-0.219,0.726-0.278,1.096H305.786z"/>
		<path fill="#FFFFFF" d="M329.905,424.475c-3.294,0-5.803-0.916-7.528-2.748c-1.725-1.832-2.587-4.434-2.587-7.806
			c0-1.676,0.263-3.172,0.789-4.488c0.526-1.315,1.247-2.426,2.163-3.333c0.916-0.906,2.007-1.593,3.274-2.061
			c1.267-0.468,2.641-0.702,4.122-0.702c0.857,0,1.637,0.064,2.339,0.19c0.702,0.127,1.316,0.273,1.842,0.439
			c0.526,0.166,0.965,0.336,1.316,0.512c0.351,0.175,0.604,0.312,0.76,0.409l-1.316,3.684c-0.624-0.331-1.35-0.614-2.178-0.848
			c-0.829-0.234-1.769-0.351-2.821-0.351c-0.702,0-1.389,0.117-2.061,0.351c-0.672,0.234-1.267,0.609-1.783,1.126
			c-0.516,0.516-0.931,1.184-1.242,2.002c-0.312,0.819-0.468,1.813-0.468,2.982c0,0.935,0.102,1.808,0.307,2.617
			c0.205,0.809,0.536,1.506,0.994,2.09c0.458,0.585,1.057,1.048,1.798,1.389c0.74,0.341,1.637,0.512,2.689,0.512
			c0.662,0,1.257-0.039,1.783-0.117c0.526-0.077,0.994-0.17,1.403-0.278c0.409-0.107,0.77-0.229,1.082-0.365
			c0.311-0.136,0.594-0.263,0.848-0.38l1.257,3.654c-0.643,0.39-1.55,0.741-2.719,1.052
			C332.799,424.318,331.445,424.475,329.905,424.475z"/>
		<path fill="#FFFFFF" d="M353.353,416.347c0,1.209-0.175,2.315-0.526,3.318c-0.351,1.004-0.858,1.862-1.52,2.573
			c-0.663,0.712-1.458,1.262-2.383,1.652c-0.926,0.39-1.964,0.585-3.113,0.585c-1.131,0-2.159-0.195-3.085-0.585
			c-0.926-0.389-1.72-0.94-2.383-1.652c-0.663-0.711-1.18-1.569-1.55-2.573c-0.37-1.004-0.556-2.11-0.556-3.318
			c0-1.208,0.19-2.31,0.57-3.304c0.38-0.994,0.906-1.842,1.579-2.544c0.672-0.702,1.471-1.247,2.397-1.637
			c0.925-0.39,1.934-0.585,3.026-0.585c1.111,0,2.129,0.195,3.055,0.585c0.926,0.39,1.72,0.935,2.383,1.637
			c0.662,0.702,1.179,1.55,1.55,2.544C353.167,414.037,353.353,415.139,353.353,416.347z M348.909,416.347
			c0-1.345-0.268-2.402-0.804-3.172c-0.536-0.77-1.301-1.155-2.295-1.155c-0.994,0-1.764,0.385-2.31,1.155
			c-0.546,0.77-0.819,1.827-0.819,3.172c0,1.345,0.273,2.412,0.819,3.201c0.545,0.789,1.315,1.184,2.31,1.184
			c0.994,0,1.759-0.395,2.295-1.184C348.641,418.759,348.909,417.692,348.909,416.347z"/>
		<path fill="#FFFFFF" d="M365.164,415.908c0-1.403-0.18-2.397-0.541-2.982c-0.361-0.585-0.98-0.877-1.857-0.877
			c-0.273,0-0.556,0.015-0.848,0.044c-0.292,0.029-0.575,0.064-0.848,0.102v11.87h-4.356v-14.852c0.37-0.097,0.804-0.2,1.301-0.307
			c0.497-0.107,1.023-0.204,1.579-0.292c0.555-0.087,1.125-0.156,1.71-0.204c0.585-0.049,1.159-0.073,1.725-0.073
			c1.111,0,2.012,0.142,2.704,0.424c0.692,0.283,1.262,0.619,1.71,1.009c0.623-0.448,1.34-0.799,2.149-1.052
			c0.809-0.253,1.554-0.38,2.237-0.38c1.228,0,2.237,0.171,3.026,0.512c0.789,0.341,1.418,0.823,1.886,1.447
			c0.467,0.624,0.789,1.364,0.965,2.222c0.175,0.858,0.263,1.813,0.263,2.865v8.683h-4.356v-8.157c0-1.403-0.18-2.397-0.541-2.982
			c-0.361-0.585-0.98-0.877-1.857-0.877c-0.234,0-0.561,0.059-0.98,0.175c-0.419,0.117-0.765,0.263-1.038,0.439
			c0.136,0.449,0.224,0.921,0.263,1.418c0.039,0.497,0.058,1.029,0.058,1.594v8.391h-4.356V415.908z"/>
		<path fill="#FFFFFF" d="M396.212,416.376c0,1.189-0.146,2.271-0.439,3.245c-0.292,0.975-0.721,1.813-1.286,2.514
			c-0.566,0.702-1.267,1.248-2.105,1.637c-0.838,0.39-1.803,0.585-2.894,0.585c-0.605,0-1.169-0.059-1.696-0.175
			c-0.526-0.117-1.033-0.282-1.52-0.497v5.789h-4.356v-20.26c0.39-0.117,0.838-0.229,1.345-0.336c0.506-0.107,1.038-0.2,1.593-0.278
			c0.556-0.077,1.121-0.141,1.696-0.19c0.575-0.049,1.126-0.073,1.652-0.073c1.267,0,2.398,0.19,3.391,0.57
			c0.994,0.38,1.832,0.916,2.514,1.608c0.682,0.692,1.203,1.535,1.564,2.529C396.032,414.037,396.212,415.148,396.212,416.376z
			 M391.768,416.493c0-1.345-0.302-2.422-0.906-3.231c-0.605-0.809-1.501-1.213-2.69-1.213c-0.39,0-0.751,0.015-1.082,0.044
			c-0.332,0.029-0.604,0.064-0.819,0.102v7.865c0.273,0.175,0.629,0.322,1.067,0.439c0.438,0.117,0.882,0.175,1.33,0.175
			C390.735,420.674,391.768,419.281,391.768,416.493z"/>
		<path fill="#FFFFFF" d="M412.701,423.539c-0.741,0.215-1.696,0.414-2.865,0.6c-1.169,0.185-2.397,0.278-3.684,0.278
			c-1.306,0-2.393-0.175-3.26-0.526c-0.867-0.351-1.555-0.843-2.061-1.476c-0.507-0.633-0.868-1.389-1.082-2.266
			c-0.215-0.877-0.322-1.842-0.322-2.894v-8.566h4.356v8.04c0,1.403,0.185,2.417,0.555,3.041c0.37,0.624,1.062,0.935,2.076,0.935
			c0.312,0,0.643-0.015,0.994-0.044c0.351-0.029,0.662-0.063,0.935-0.102v-11.87h4.356V423.539z"/>
		<path fill="#FFFFFF" d="M416.648,404.857l4.356-0.702v4.532h5.233v3.625h-5.233v5.409c0,0.916,0.161,1.647,0.483,2.193
			c0.322,0.546,0.969,0.819,1.944,0.819c0.468,0,0.95-0.044,1.447-0.132c0.497-0.087,0.95-0.209,1.36-0.365l0.614,3.391
			c-0.526,0.215-1.111,0.4-1.754,0.556c-0.643,0.156-1.433,0.234-2.368,0.234c-1.189,0-2.173-0.161-2.953-0.482
			c-0.78-0.322-1.403-0.769-1.871-1.345c-0.468-0.575-0.794-1.272-0.979-2.09c-0.186-0.819-0.278-1.725-0.278-2.719V404.857z"/>
		<path fill="#FFFFFF" d="M428.459,416.493c0-1.364,0.21-2.558,0.629-3.581c0.419-1.024,0.969-1.876,1.652-2.558
			c0.682-0.682,1.466-1.199,2.354-1.55c0.887-0.351,1.798-0.526,2.733-0.526c2.183,0,3.908,0.668,5.175,2.003
			c1.267,1.335,1.9,3.299,1.9,5.891c0,0.253-0.01,0.531-0.029,0.833c-0.02,0.303-0.039,0.57-0.059,0.804h-9.882
			c0.097,0.897,0.516,1.608,1.257,2.134c0.741,0.526,1.734,0.789,2.982,0.789c0.799,0,1.583-0.073,2.353-0.219
			c0.77-0.146,1.398-0.326,1.886-0.541l0.585,3.538c-0.234,0.117-0.546,0.234-0.935,0.351c-0.39,0.117-0.824,0.219-1.301,0.307
			c-0.478,0.087-0.989,0.161-1.535,0.219c-0.546,0.059-1.092,0.088-1.637,0.088c-1.384,0-2.587-0.205-3.611-0.614
			c-1.023-0.409-1.871-0.97-2.544-1.681c-0.672-0.711-1.169-1.554-1.491-2.529C428.619,418.676,428.459,417.624,428.459,416.493z
			 M438.691,414.827c-0.02-0.37-0.083-0.731-0.19-1.082c-0.107-0.351-0.273-0.662-0.497-0.935c-0.224-0.273-0.507-0.497-0.848-0.672
			c-0.342-0.176-0.765-0.263-1.272-0.263c-0.487,0-0.906,0.083-1.257,0.249c-0.351,0.166-0.643,0.385-0.877,0.658
			c-0.234,0.273-0.414,0.59-0.541,0.95c-0.127,0.361-0.219,0.726-0.278,1.096H438.691z"/>
		<path fill="#FFFFFF" d="M455.531,412.547c-0.39-0.097-0.848-0.2-1.374-0.307c-0.526-0.107-1.092-0.161-1.696-0.161
			c-0.273,0-0.599,0.025-0.979,0.073c-0.38,0.049-0.668,0.102-0.863,0.161v11.753h-4.356v-14.559
			c0.779-0.273,1.701-0.531,2.763-0.775c1.062-0.243,2.246-0.365,3.552-0.365c0.234,0,0.516,0.015,0.848,0.044
			c0.331,0.029,0.662,0.069,0.994,0.117c0.331,0.049,0.662,0.107,0.994,0.175c0.331,0.069,0.614,0.151,0.848,0.248L455.531,412.547z
			"/>
		<path fill="#FFFFFF" d="M471.991,403.571c3.021,0,5.34,0.531,6.958,1.593c1.617,1.062,2.426,2.802,2.426,5.218
			c0,2.437-0.818,4.196-2.456,5.277c-1.637,1.082-3.976,1.623-7.017,1.623h-1.433v6.783h-4.561v-19.968
			c0.994-0.195,2.046-0.331,3.157-0.409C470.178,403.61,471.152,403.571,471.991,403.571z M472.283,407.459
			c-0.332,0-0.658,0.01-0.979,0.029c-0.322,0.02-0.6,0.039-0.833,0.059v5.847h1.433c1.579,0,2.767-0.214,3.567-0.643
			c0.799-0.429,1.199-1.228,1.199-2.397c0-0.565-0.102-1.033-0.307-1.404c-0.204-0.37-0.497-0.667-0.877-0.891
			c-0.38-0.224-0.843-0.38-1.389-0.468C473.55,407.503,472.945,407.459,472.283,407.459z"/>
		<path fill="#FFFFFF" d="M493.713,412.547c-0.39-0.097-0.848-0.2-1.374-0.307c-0.526-0.107-1.092-0.161-1.696-0.161
			c-0.273,0-0.599,0.025-0.979,0.073c-0.38,0.049-0.668,0.102-0.863,0.161v11.753h-4.356v-14.559
			c0.779-0.273,1.701-0.531,2.763-0.775c1.062-0.243,2.246-0.365,3.552-0.365c0.234,0,0.516,0.015,0.848,0.044
			c0.331,0.029,0.662,0.069,0.994,0.117c0.331,0.049,0.662,0.107,0.994,0.175c0.331,0.069,0.614,0.151,0.848,0.248L493.713,412.547z
			"/>
		<path fill="#FFFFFF" d="M510.875,416.347c0,1.209-0.175,2.315-0.526,3.318c-0.351,1.004-0.858,1.862-1.52,2.573
			c-0.663,0.712-1.458,1.262-2.383,1.652c-0.926,0.39-1.964,0.585-3.113,0.585c-1.131,0-2.159-0.195-3.085-0.585
			c-0.926-0.389-1.72-0.94-2.383-1.652c-0.663-0.711-1.18-1.569-1.55-2.573c-0.37-1.004-0.556-2.11-0.556-3.318
			c0-1.208,0.19-2.31,0.57-3.304c0.38-0.994,0.906-1.842,1.579-2.544c0.672-0.702,1.471-1.247,2.397-1.637
			c0.925-0.39,1.934-0.585,3.026-0.585c1.111,0,2.129,0.195,3.055,0.585c0.926,0.39,1.72,0.935,2.383,1.637
			c0.662,0.702,1.179,1.55,1.55,2.544C510.689,414.037,510.875,415.139,510.875,416.347z M506.431,416.347
			c0-1.345-0.268-2.402-0.804-3.172c-0.536-0.77-1.301-1.155-2.295-1.155c-0.994,0-1.764,0.385-2.31,1.155
			c-0.546,0.77-0.819,1.827-0.819,3.172c0,1.345,0.273,2.412,0.819,3.201c0.545,0.789,1.315,1.184,2.31,1.184
			c0.994,0,1.759-0.395,2.295-1.184C506.163,418.759,506.431,417.692,506.431,416.347z"/>
		<path fill="#FFFFFF" d="M512.804,429.474c-0.273,0-0.677-0.029-1.213-0.088c-0.536-0.058-1.038-0.166-1.506-0.322l0.585-3.537
			c0.292,0.097,0.561,0.165,0.804,0.204c0.244,0.039,0.551,0.059,0.921,0.059c0.682,0,1.159-0.204,1.433-0.614
			c0.273-0.409,0.409-1.004,0.409-1.783v-14.706h4.356v14.823c0,2.027-0.497,3.527-1.491,4.502
			C516.107,428.986,514.675,429.474,512.804,429.474z M519.002,404.243c0,0.799-0.258,1.428-0.775,1.886
			c-0.516,0.458-1.125,0.687-1.827,0.687c-0.702,0-1.311-0.229-1.827-0.687c-0.516-0.458-0.774-1.086-0.774-1.886
			c0-0.799,0.258-1.428,0.774-1.886c0.516-0.458,1.126-0.687,1.827-0.687c0.702,0,1.311,0.229,1.827,0.687
			C518.743,402.816,519.002,403.445,519.002,404.243z"/>
		<path fill="#FFFFFF" d="M521.954,416.493c0-1.364,0.209-2.558,0.629-3.581c0.419-1.024,0.969-1.876,1.652-2.558
			c0.682-0.682,1.466-1.199,2.354-1.55c0.887-0.351,1.798-0.526,2.733-0.526c2.183,0,3.908,0.668,5.175,2.003
			c1.267,1.335,1.9,3.299,1.9,5.891c0,0.253-0.01,0.531-0.029,0.833c-0.02,0.303-0.039,0.57-0.059,0.804h-9.882
			c0.097,0.897,0.516,1.608,1.257,2.134c0.741,0.526,1.734,0.789,2.982,0.789c0.799,0,1.583-0.073,2.353-0.219
			c0.77-0.146,1.398-0.326,1.886-0.541l0.585,3.538c-0.234,0.117-0.546,0.234-0.935,0.351c-0.39,0.117-0.824,0.219-1.301,0.307
			c-0.477,0.087-0.989,0.161-1.535,0.219c-0.546,0.059-1.092,0.088-1.637,0.088c-1.384,0-2.587-0.205-3.611-0.614
			c-1.023-0.409-1.871-0.97-2.543-1.681c-0.672-0.711-1.17-1.554-1.491-2.529C522.115,418.676,521.954,417.624,521.954,416.493z
			 M532.187,414.827c-0.02-0.37-0.083-0.731-0.19-1.082c-0.107-0.351-0.273-0.662-0.497-0.935c-0.224-0.273-0.507-0.497-0.848-0.672
			c-0.341-0.176-0.765-0.263-1.272-0.263c-0.487,0-0.906,0.083-1.257,0.249c-0.351,0.166-0.643,0.385-0.877,0.658
			c-0.234,0.273-0.414,0.59-0.541,0.95c-0.127,0.361-0.219,0.726-0.278,1.096H532.187z"/>
		<path fill="#FFFFFF" d="M539.028,416.376c0-1.111,0.18-2.158,0.541-3.143c0.36-0.984,0.882-1.842,1.564-2.573
			c0.682-0.731,1.51-1.311,2.485-1.74c0.974-0.428,2.085-0.643,3.333-0.643c0.818,0,1.568,0.073,2.251,0.219
			c0.682,0.146,1.345,0.356,1.988,0.628l-0.906,3.479c-0.409-0.156-0.858-0.292-1.345-0.409c-0.487-0.117-1.033-0.175-1.637-0.175
			c-1.287,0-2.247,0.4-2.88,1.199c-0.634,0.799-0.95,1.852-0.95,3.157c0,1.384,0.297,2.456,0.892,3.216
			c0.594,0.76,1.632,1.14,3.113,1.14c0.526,0,1.091-0.049,1.696-0.146c0.604-0.097,1.159-0.253,1.666-0.468l0.614,3.567
			c-0.507,0.215-1.14,0.399-1.9,0.556c-0.76,0.156-1.599,0.234-2.515,0.234c-1.403,0-2.612-0.21-3.625-0.628
			c-1.014-0.419-1.847-0.989-2.5-1.711c-0.653-0.721-1.131-1.573-1.433-2.558C539.179,418.594,539.028,417.526,539.028,416.376z"/>
		<path fill="#FFFFFF" d="M554.231,404.857l4.356-0.702v4.532h5.233v3.625h-5.233v5.409c0,0.916,0.161,1.647,0.482,2.193
			c0.322,0.546,0.969,0.819,1.944,0.819c0.468,0,0.95-0.044,1.447-0.132c0.497-0.087,0.95-0.209,1.36-0.365l0.614,3.391
			c-0.526,0.215-1.111,0.4-1.754,0.556c-0.643,0.156-1.432,0.234-2.368,0.234c-1.189,0-2.173-0.161-2.953-0.482
			c-0.78-0.322-1.403-0.769-1.871-1.345c-0.468-0.575-0.794-1.272-0.979-2.09c-0.186-0.819-0.278-1.725-0.278-2.719V404.857z"/>
	</g>
	<g>
		<path fill="#FFFFFF" d="M267.28,510.195c-4.323,0-8.054-0.608-11.192-1.82c-3.139-1.213-5.729-2.902-7.772-5.064
			c-2.043-2.161-3.553-4.737-4.53-7.728c-0.977-2.989-1.466-6.291-1.466-9.904v-38.283h13.857v37.129
			c0,2.487,0.28,4.605,0.844,6.351c0.563,1.748,1.333,3.169,2.31,4.263c0.977,1.097,2.161,1.881,3.553,2.354
			c1.39,0.475,2.916,0.711,4.575,0.711c3.375,0,6.113-1.035,8.216-3.11c2.101-2.072,3.154-5.595,3.154-10.569v-37.129h13.856v38.283
			c0,3.613-0.504,6.928-1.51,9.948c-1.007,3.02-2.546,5.611-4.618,7.772c-2.074,2.162-4.708,3.835-7.905,5.018
			C275.452,509.602,271.662,510.195,267.28,510.195z"/>
		<path fill="#FFFFFF" d="M336.028,458.055c-6.456,0-11.119,1.791-13.99,5.374c-2.872,3.583-4.308,8.482-4.308,14.701
			c0,3.02,0.356,5.76,1.066,8.216c0.71,2.458,1.776,4.575,3.198,6.352c1.421,1.776,3.198,3.153,5.329,4.13s4.619,1.466,7.462,1.466
			c1.539,0,2.855-0.029,3.952-0.089c1.095-0.059,2.057-0.178,2.887-0.356v-21.407h13.856v30.467
			c-1.659,0.652-4.323,1.348-7.994,2.087c-3.672,0.739-8.203,1.11-13.59,1.11c-4.618,0-8.809-0.71-12.568-2.132
			c-3.761-1.421-6.973-3.493-9.638-6.218c-2.664-2.723-4.722-6.069-6.173-10.036c-1.452-3.967-2.176-8.497-2.176-13.59
			c0-5.152,0.799-9.711,2.398-13.679c1.598-3.966,3.788-7.327,6.573-10.082c2.782-2.753,6.053-4.84,9.815-6.262
			c3.76-1.421,7.772-2.132,12.035-2.132c2.9,0,5.521,0.193,7.86,0.577c2.339,0.386,4.352,0.831,6.04,1.333
			c1.687,0.504,3.078,1.021,4.174,1.555c1.095,0.532,1.879,0.948,2.354,1.243l-3.998,11.103c-1.895-1.006-4.071-1.879-6.528-2.62
			C341.607,458.426,338.928,458.055,336.028,458.055z"/>
		<path fill="#FFFFFF" d="M431.04,453.97c0.709,2.429,1.492,5.167,2.35,8.215c0.858,3.051,1.774,6.204,2.75,9.46
			c0.974,3.257,1.965,6.514,2.97,9.77c1.005,3.257,1.98,6.277,2.926,9.06c0.773-3.021,1.561-6.307,2.366-9.859
			c0.801-3.553,1.561-7.224,2.274-11.015c0.713-3.788,1.414-7.564,2.098-11.324s1.324-7.387,1.919-10.882h14.394
			c-2.085,10.304-4.483,20.756-7.194,31.355c-2.71,10.601-5.644,20.667-8.8,30.2h-12.674c-2.069-5.685-4.079-11.649-6.029-17.898
			c-1.952-6.246-3.873-12.509-5.763-18.786c-1.897,6.277-3.794,12.54-5.691,18.786c-1.897,6.249-3.884,12.213-5.958,17.898h-12.664
			c-3.153-9.533-6.082-19.599-8.787-30.2c-2.706-10.599-5.099-21.051-7.181-31.355h15.012c0.594,3.495,1.249,7.121,1.964,10.882
			c0.713,3.76,1.457,7.536,2.231,11.324c0.773,3.791,1.561,7.462,2.365,11.015c0.805,3.552,1.623,6.839,2.456,9.859
			c1.067-2.902,2.106-5.981,3.114-9.238c1.007-3.256,1.987-6.513,2.937-9.77c0.949-3.256,1.823-6.395,2.624-9.416
			c0.801-3.02,1.528-5.714,2.18-8.082H431.04z"/>
		<path fill="#FFFFFF" d="M487.469,448.728c0,2.429-0.785,4.339-2.354,5.729c-1.569,1.392-3.419,2.087-5.551,2.087
			c-2.132,0-3.983-0.695-5.551-2.087c-1.569-1.39-2.353-3.301-2.353-5.729c0-2.427,0.784-4.337,2.353-5.729
			c1.569-1.39,3.42-2.087,5.551-2.087c2.133,0,3.983,0.697,5.551,2.087C486.684,444.391,487.469,446.302,487.469,448.728z
			 M486.225,508.951H472.99V462.23h13.235V508.951z"/>
		<path fill="#FFFFFF" d="M511.894,479.008c1.302-1.413,2.647-2.884,4.038-4.415c1.389-1.531,2.736-3.046,4.038-4.547
			c1.301-1.502,2.529-2.929,3.681-4.283c1.154-1.353,2.145-2.531,2.973-3.533h15.737c-3.139,3.606-6.204,7.048-9.194,10.326
			c-2.99,3.28-6.262,6.662-9.815,10.149c1.777,1.601,3.612,3.515,5.507,5.738c1.894,2.225,3.731,4.524,5.507,6.897
			c1.777,2.373,3.405,4.745,4.886,7.117c1.479,2.372,2.723,4.538,3.73,6.495h-15.218c-0.947-1.543-2.024-3.248-3.237-5.12
			c-1.211-1.869-2.496-3.739-3.857-5.608c-1.36-1.87-2.792-3.666-4.299-5.387s-3.001-3.176-4.478-4.363v20.478h-13.235v-66.795
			l13.235-2.132V479.008z"/>
		<path fill="#FFFFFF" d="M564.566,448.728c0,2.429-0.785,4.339-2.354,5.729c-1.569,1.392-3.419,2.087-5.551,2.087
			c-2.132,0-3.983-0.695-5.552-2.087c-1.569-1.39-2.353-3.301-2.353-5.729c0-2.427,0.784-4.337,2.353-5.729
			c1.569-1.39,3.42-2.087,5.552-2.087c2.133,0,3.982,0.697,5.551,2.087C563.781,444.391,564.566,446.302,564.566,448.728z
			 M563.322,508.951h-13.235V462.23h13.235V508.951z"/>
	</g>
</g>
</svg>
